<svg width="41" height="41" viewBox="0 0 41 41" fill="none" xmlns="http://www.w3.org/2000/svg">
<path d="M18.689 3.84353C19.1696 3.36313 19.8212 3.09326 20.5007 3.09326C21.1802 3.09326 21.8319 3.36313 22.3124 3.84353L28.1882 9.71934V6.40603C28.1882 6.06622 28.3232 5.74033 28.5635 5.50005C28.8038 5.25977 29.1297 5.12478 29.4695 5.12478H32.032C32.3718 5.12478 32.6977 5.25977 32.9379 5.50005C33.1782 5.74033 33.3132 6.06622 33.3132 6.40603V14.8443L39.3453 20.8739C39.5856 21.1145 39.7204 21.4407 39.7202 21.7807C39.7199 22.1206 39.5846 22.4466 39.3441 22.6869C39.1035 22.9271 38.7773 23.0619 38.4373 23.0617C38.0973 23.0615 37.7713 22.9262 37.5311 22.6856L20.5007 5.65521L3.47034 22.6856C3.23009 22.9262 2.90412 23.0615 2.56412 23.0617C2.22412 23.0619 1.89795 22.9271 1.65737 22.6869C1.41678 22.4466 1.28149 22.1206 1.28125 21.7807C1.28101 21.4407 1.41584 21.1145 1.65609 20.8739L18.689 3.84353Z" fill="#25C373"/>
<path d="M35.875 23.813L20.5 8.43799L5.125 23.813V34.5934C5.125 35.6129 5.52997 36.5905 6.25081 37.3114C6.97165 38.0322 7.94932 38.4372 8.96875 38.4372H32.0312C33.0507 38.4372 34.0283 38.0322 34.7492 37.3114C35.47 36.5905 35.875 35.6129 35.875 34.5934V23.813ZM20.5 21.7348C24.764 17.4477 35.4266 24.9482 20.5 34.5934C5.57344 24.9482 16.236 17.4477 20.5 21.7348Z" fill="#25C373"/>
</svg>
