<svg width="23" height="22" viewBox="0 0 23 22" fill="none" xmlns="http://www.w3.org/2000/svg">
<path d="M20.0105 7.58613L14.5556 6.79336L12.1171 1.84981C12.0505 1.71445 11.9409 1.60488 11.8056 1.53828C11.4661 1.3707 11.0536 1.51035 10.8839 1.84981L8.44544 6.79336L2.99055 7.58613C2.84016 7.60762 2.70266 7.67852 2.59739 7.78594C2.47012 7.91675 2.39999 8.09274 2.4024 8.27523C2.40482 8.45772 2.47959 8.63179 2.61028 8.75918L6.55696 12.607L5.62454 18.0404C5.60267 18.1668 5.61666 18.2968 5.66491 18.4157C5.71316 18.5345 5.79375 18.6375 5.89754 18.7128C6.00132 18.7882 6.12415 18.833 6.25209 18.8421C6.38004 18.8513 6.50798 18.8243 6.62141 18.7645L11.5005 16.1992L16.3796 18.7645C16.5128 18.8354 16.6675 18.859 16.8158 18.8332C17.1896 18.7688 17.4409 18.4143 17.3765 18.0404L16.4441 12.607L20.3907 8.75918C20.4982 8.65391 20.5691 8.51641 20.5906 8.36602C20.6486 7.99004 20.3865 7.64199 20.0105 7.58613Z" fill="url(#paint0_linear_71_445)"/>
<defs>
<linearGradient id="paint0_linear_71_445" x1="43.5005" y1="19" x2="11.5005" y2="18.8439" gradientUnits="userSpaceOnUse">
<stop stop-color="#62F8B4"/>
<stop offset="1" stop-color="#22C070"/>
</linearGradient>
</defs>
</svg>
